<?xml version="1.0" standalone="no"?>
<!DOCTYPE svg PUBLIC "-//W3C//DTD SVG 20010904//EN"
 "http://www.w3.org/TR/2001/REC-SVG-20010904/DTD/svg10.dtd">
<svg version="1.0" xmlns="http://www.w3.org/2000/svg"
 width="1800.000000pt" height="1800.000000pt" viewBox="0 0 1800.000000 1800.000000"
 preserveAspectRatio="xMidYMid meet">

<g transform="translate(0.000000,1800.000000) scale(0.100000,-0.100000)"
fill="#000000" stroke="none">
<path d="M8765 17784 c-648 -47 -1274 -220 -1635 -452 -135 -87 -273 -208
-365 -322 -69 -85 -195 -313 -195 -353 0 -25 17 -21 37 11 43 68 159 220 191
250 35 33 76 44 66 18 -13 -35 21 -23 69 24 164 162 556 361 923 469 363 106
896 179 1214 167 599 -24 1110 -138 1580 -355 56 -25 199 -109 278 -162 40
-27 75 -49 79 -49 3 0 19 -13 35 -30 15 -16 33 -30 40 -30 6 0 9 -2 6 -5 -6
-6 54 -75 65 -75 11 0 8 38 -3 45 -18 11 -10 23 13 18 25 -6 137 -111 137
-129 0 -7 4 -14 8 -16 4 -1 34 -42 66 -90 62 -93 82 -109 71 -56 -8 34 -9 36
-45 108 -13 25 -33 63 -44 85 -76 150 -268 347 -456 467 -260 166 -644 306
-1050 382 -47 9 -107 21 -135 26 -160 31 -393 51 -640 54 -143 2 -282 2 -310
0z m185 -104 c-8 -5 -24 -10 -35 -10 -17 0 -17 2 -5 10 8 5 24 10 35 10 17 0
17 -2 5 -10z m-245 -10 c-3 -5 -12 -10 -18 -10 -7 0 -6 4 3 10 19 12 23 12 15
0z m58 3 c-7 -2 -19 -2 -25 0 -7 3 -2 5 12 5 14 0 19 -2 13 -5z m370 0 c-13
-2 -33 -2 -45 0 -13 2 -3 4 22 4 25 0 35 -2 23 -4z m64 1 c-3 -3 -12 -4 -19
-1 -8 3 -5 6 6 6 11 1 17 -2 13 -5z m86 -1 c-7 -2 -19 -2 -25 0 -7 3 -2 5 12
5 14 0 19 -2 13 -5z m-650 -20 c-13 -2 -35 -2 -50 0 -16 2 -5 4 22 4 28 0 40
-2 28 -4z m764 1 c-3 -3 -12 -4 -19 -1 -8 3 -5 6 6 6 11 1 17 -2 13 -5z m430
-60 c-3 -3 -12 -4 -19 -1 -8 3 -5 6 6 6 11 1 17 -2 13 -5z m-1720 -20 c-3 -3
-12 -4 -19 -1 -8 3 -5 6 6 6 11 1 17 -2 13 -5z m-187 -44 c0 -5 -8 -10 -17
-10 -15 0 -16 2 -3 10 19 12 20 12 20 0z m-1045 -560 c3 -5 -1 -10 -10 -10 -9
0 -13 5 -10 10 3 6 8 10 10 10 2 0 7 -4 10 -10z"/>
<path d="M6850 16895 c-1 -5 -2 -13 -1 -17 0 -5 -3 -8 -9 -8 -5 0 -10 -5 -10
-12 0 -8 6 -7 16 4 9 9 14 22 11 30 -3 7 -6 9 -7 3z"/>
<path d="M11170 16865 c7 -8 17 -15 22 -15 6 0 5 7 -2 15 -7 8 -17 15 -22 15
-6 0 -5 -7 2 -15z"/>
<path d="M6297 15083 c-15 -32 -38 -78 -51 -103 -52 -99 -126 -268 -126 -288
0 -96 142 85 180 229 6 24 15 58 20 74 14 48 23 145 14 145 -5 0 -21 -26 -37
-57z"/>
<path d="M11685 15069 c3 -35 10 -78 15 -96 6 -18 15 -50 21 -70 23 -75 83
-187 122 -226 34 -34 41 -37 49 -23 12 21 -12 96 -58 187 -19 36 -34 68 -34
72 0 3 -13 28 -28 54 -16 26 -37 69 -47 95 -9 26 -24 53 -31 59 -11 9 -12 -1
-9 -52z"/>
<path d="M6370 14878 c0 -8 -18 -29 -39 -48 -22 -18 -47 -50 -55 -71 -9 -22
-20 -39 -25 -39 -5 0 -13 -13 -19 -28 -14 -42 -124 -145 -226 -212 -50 -33
-96 -65 -103 -70 -7 -6 -21 -10 -32 -10 -10 0 -21 -6 -24 -13 -3 -7 -25 -19
-48 -27 -24 -7 -38 -15 -30 -18 20 -7 251 59 251 72 0 7 33 35 73 64 107 76
170 145 220 242 48 92 72 158 63 167 -3 4 -6 0 -6 -9z"/>
<path d="M11641 14858 c-1 -11 18 -56 63 -147 48 -96 125 -181 235 -256 43
-30 70 -54 67 -62 -3 -7 1 -13 9 -13 9 0 65 -14 126 -31 61 -17 113 -28 116
-25 3 3 -7 10 -23 16 -96 35 -295 169 -379 255 -38 39 -82 95 -97 124 -32 63
-77 121 -94 121 -7 0 -15 6 -17 13 -3 6 -6 9 -6 5z"/>
<path d="M4425 14540 c3 -5 8 -10 11 -10 2 0 4 5 4 10 0 6 -5 10 -11 10 -5 0
-7 -4 -4 -10z"/>
<path d="M13580 14534 c0 -8 5 -12 10 -9 6 3 10 10 10 16 0 5 -4 9 -10 9 -5 0
-10 -7 -10 -16z"/>
<path d="M13550 14501 c0 -5 5 -13 10 -16 6 -3 10 -2 10 4 0 5 -4 13 -10 16
-5 3 -10 2 -10 -4z"/>
<path d="M4460 14470 c0 -5 5 -10 10 -10 6 0 10 5 10 10 0 6 -4 10 -10 10 -5
0 -10 -4 -10 -10z"/>
<path d="M13545 14461 c-3 -5 -1 -12 5 -16 5 -3 10 1 10 9 0 18 -6 21 -15 7z"/>
<path d="M4480 14441 c0 -13 22 -67 41 -104 7 -13 5 -19 -6 -23 -8 -4 -15 -11
-15 -18 0 -6 -29 -31 -65 -56 -35 -25 -67 -51 -69 -57 -9 -21 9 -15 35 13 30
33 307 169 385 189 32 8 63 20 68 26 17 18 -48 5 -134 -26 -84 -30 -180 -44
-180 -27 0 6 -12 28 -26 49 -31 47 -34 49 -34 34z"/>
<path d="M5690 14381 c-110 -45 -552 -262 -547 -267 2 -3 497 195 542 217 11
5 29 14 40 21 11 7 31 19 45 28 14 8 36 17 49 20 33 7 40 30 9 30 -12 0 -75
-22 -138 -49z"/>
<path d="M13520 14417 c0 -7 -8 -22 -18 -33 -10 -10 -21 -27 -25 -38 -9 -24
-51 -18 -178 24 -92 31 -164 41 -124 18 10 -6 40 -15 65 -20 60 -11 301 -129
368 -180 29 -23 55 -38 58 -35 3 3 -16 20 -41 39 -92 65 -135 108 -126 126 29
58 44 112 30 112 -5 0 -9 -6 -9 -13z"/>
<path d="M12175 14410 c-3 -5 -3 -10 2 -10 4 0 1 -5 -7 -11 -13 -9 -12 -10 3
-5 20 6 49 -3 42 -14 -3 -5 3 -6 13 -3 11 2 25 -2 33 -9 16 -15 151 -82 189
-93 14 -4 43 -15 65 -25 22 -10 85 -36 140 -58 55 -22 138 -56 184 -76 46 -20
85 -35 87 -33 7 6 -549 275 -643 311 -104 41 -100 40 -108 26z"/>
<path d="M6213 14403 c20 -2 54 -2 75 0 20 2 3 4 -38 4 -41 0 -58 -2 -37 -4z"/>
<path d="M11713 14403 c20 -2 54 -2 75 0 20 2 3 4 -38 4 -41 0 -58 -2 -37 -4z"/>
<path d="M11600 14317 c0 -2 7 -18 16 -35 8 -18 13 -36 9 -42 -3 -5 3 -10 13
-10 32 0 32 25 1 58 -27 29 -39 38 -39 29z"/>
<path d="M6376 14288 c-30 -26 -27 -58 5 -58 10 0 19 -5 19 -11 0 -5 5 -7 12
-3 8 5 5 11 -7 20 -16 12 -17 17 -6 40 16 36 9 40 -23 12z"/>
<path d="M4577 14244 c-2 -3 5 -32 16 -66 17 -49 19 -67 10 -99 -8 -32 -8 -39
5 -39 12 0 12 -3 2 -15 -6 -8 -15 -14 -18 -13 -30 6 -102 -57 -102 -88 0 -20
3 -19 130 46 124 64 143 73 268 131 92 43 105 66 52 94 -28 14 -31 14 -50 -5
-27 -27 -66 -42 -115 -44 -22 -1 -52 -6 -67 -10 -28 -8 -30 -7 -92 71 -19 23
-36 40 -39 37z m83 -234 c-19 -13 -30 -13 -30 0 0 6 10 10 23 10 18 0 19 -2 7
-10z"/>
<path d="M11575 14215 c-16 -8 -23 -14 -14 -15 8 0 24 7 35 15 23 18 18 18
-21 0z"/>
<path d="M13405 14194 c-60 -77 -71 -85 -102 -73 -15 6 -46 12 -68 13 -47 3
-95 21 -111 41 -17 23 -74 0 -74 -28 0 -19 37 -40 228 -134 126 -62 234 -113
240 -113 9 0 9 8 -1 31 -7 17 -17 31 -22 31 -6 0 -17 6 -26 14 -9 8 -28 18
-43 22 -14 4 -25 12 -25 17 1 6 4 9 8 8 4 -1 7 26 7 60 0 60 2 72 18 109 17
37 -1 38 -29 2z m-35 -194 c12 -8 11 -10 -7 -10 -13 0 -23 5 -23 10 0 13 11
13 30 0z m45 -20 c-3 -5 -11 -10 -16 -10 -6 0 -7 5 -4 10 3 6 11 10 16 10 6 0
7 -4 4 -10z m40 -30 c3 -5 1 -10 -4 -10 -6 0 -11 5 -11 10 0 6 2 10 4 10 3 0
8 -4 11 -10z"/>
<path d="M6435 14210 c3 -5 11 -10 16 -10 6 0 7 5 4 10 -3 6 -11 10 -16 10 -6
0 -7 -4 -4 -10z"/>
<path d="M11288 14117 c-31 -12 -60 -25 -64 -29 -4 -5 -14 -8 -23 -8 -9 0 -27
-9 -41 -20 -14 -11 -31 -20 -37 -20 -16 0 -143 -91 -143 -102 0 -4 -6 -8 -14
-8 -25 0 -275 -289 -276 -318 0 -20 24 -9 35 16 5 12 13 22 17 22 5 0 8 6 8
13 0 6 16 23 35 37 19 14 35 29 35 34 0 14 192 199 240 231 25 16 48 34 51 38
11 15 38 29 224 117 54 26 24 23 -47 -3z"/>
<path d="M6678 14123 c7 -3 16 -2 19 1 4 3 -2 6 -13 5 -11 0 -14 -3 -6 -6z"/>
<path d="M6710 14116 c0 -6 99 -56 111 -56 5 0 38 -20 75 -45 36 -25 67 -45
69 -45 20 0 324 -313 325 -335 1 -11 50 -50 50 -39 0 14 -51 94 -60 94 -5 0
-11 8 -14 18 -8 22 -202 232 -216 232 -4 0 -20 11 -36 25 -16 14 -36 31 -44
38 -50 41 -260 132 -260 113z"/>
<path d="M12980 14040 c14 -11 45 -27 70 -37 25 -9 65 -28 90 -41 25 -14 41
-20 35 -14 -11 12 -156 89 -195 103 l-25 9 25 -20z"/>
<path d="M4814 13934 c-18 -14 -18 -15 4 -4 12 6 22 13 22 15 0 8 -5 6 -26
-11z"/>
<path d="M13197 13929 c7 -7 15 -10 18 -7 3 3 -2 9 -12 12 -14 6 -15 5 -6 -5z"/>
<path d="M9261 13904 c0 -11 3 -14 6 -6 3 7 2 16 -1 19 -3 4 -6 -2 -5 -13z"/>
<path d="M4736 13895 c-11 -8 -15 -15 -9 -15 6 0 16 7 23 15 16 19 11 19 -14
0z"/>
<path d="M9211 13894 c0 -11 3 -14 6 -6 3 7 2 16 -1 19 -3 4 -6 -2 -5 -13z"/>
<path d="M4508 13804 c-78 -39 -128 -70 -128 -79 0 -8 2 -15 6 -15 3 0 48 25
100 55 52 30 100 54 107 52 6 -1 11 4 12 11 0 8 11 20 25 27 14 8 21 14 15 14
-5 0 -67 -29 -137 -65z"/>
<path d="M13330 13866 c0 -2 46 -30 103 -62 56 -31 123 -70 150 -86 55 -32 57
-33 57 -13 0 9 -57 43 -150 90 -146 73 -160 79 -160 71z"/>
<path d="M9200 13772 c0 -42 -17 -45 -215 -31 -127 9 -192 10 -203 3 -10 -7
-28 -7 -53 0 -32 8 -41 7 -59 -9 -33 -30 -26 -91 20 -185 3 -8 23 -27 42 -43
35 -28 40 -29 250 -45 l213 -17 1 -30 c1 -16 3 -57 5 -90 2 -33 0 -66 -4 -72
-4 -6 -6 -53 -5 -104 1 -52 -1 -116 -5 -144 -4 -27 -9 -115 -13 -195 -5 -125
-14 -232 -41 -497 -5 -51 -5 -53 19 -53 l25 0 6 198 c4 108 13 321 20 472 8
151 14 327 13 392 -1 101 1 115 14 108 9 -5 22 -5 30 0 8 4 103 3 211 -3 108
-5 211 -7 231 -3 49 9 113 67 133 121 19 49 17 151 -4 164 -6 4 -37 4 -69 1
-80 -10 -292 -2 -450 16 -55 6 -63 10 -68 31 -4 13 -9 22 -12 19 -3 -3 -11 -1
-19 5 -10 9 -13 7 -13 -9z m27 -34 c-3 -8 -6 -5 -6 6 -1 11 2 17 5 13 3 -3 4
-12 1 -19z m-467 -93 c0 -14 -4 -25 -10 -25 -11 0 -14 33 -3 43 11 11 13 8 13
-18z m-30 -35 c0 -12 -28 -25 -36 -17 -9 9 6 27 22 27 8 0 14 -5 14 -10z"/>
<path d="M7725 13459 c-55 -10 -136 -24 -179 -30 -44 -5 -88 -15 -98 -20 -11
-6 -41 -16 -66 -24 -55 -15 -238 -81 -335 -120 -43 -17 -66 -32 -63 -40 2 -7
-10 -17 -33 -24 -56 -16 -61 -13 -16 9 22 11 29 17 16 14 -40 -10 -82 -30 -76
-36 3 -3 -7 -5 -22 -5 -16 0 -77 -21 -138 -47 -60 -26 -128 -54 -150 -61 -22
-7 -71 -25 -110 -40 -66 -25 -132 -50 -289 -110 -79 -30 -276 -114 -291 -125
-5 -3 -26 -13 -45 -20 -96 -36 -822 -405 -910 -461 -14 -9 -50 -30 -80 -46
-84 -45 -137 -76 -230 -134 -47 -29 -113 -69 -146 -90 -154 -94 -323 -205
-407 -265 -333 -241 -403 -296 -529 -421 -113 -112 -155 -180 -144 -234 5 -31
12 -38 49 -50 59 -20 276 -17 397 5 328 58 1009 309 1641 604 46 21 112 51
147 67 l62 28 0 51 c0 60 4 67 49 83 31 11 37 11 53 -7 10 -10 18 -26 18 -35
0 -9 5 -13 10 -10 6 3 10 -1 10 -9 0 -9 4 -16 9 -16 5 0 14 -15 22 -32 7 -18
24 -51 39 -73 14 -22 32 -52 39 -67 8 -16 18 -28 23 -28 4 0 8 -7 8 -15 0 -8
20 -48 45 -88 25 -41 45 -81 45 -88 0 -12 -101 -79 -118 -79 -4 0 -20 22 -35
48 -56 94 -41 93 -174 6 -426 -281 -903 -716 -989 -904 -44 -94 -62 -170 -42
-170 5 0 8 -7 4 -15 -10 -26 4 -17 67 45 34 32 63 57 65 55 3 -2 -3 -12 -12
-21 -9 -9 -54 -62 -99 -118 l-81 -101 116 115 c63 63 136 134 161 158 45 41
73 54 64 30 -2 -7 -10 -12 -16 -11 -6 2 -11 -4 -11 -12 0 -7 -8 -19 -17 -24
-10 -6 -14 -11 -10 -11 10 0 -36 -62 -80 -110 -18 -19 -36 -43 -39 -54 -4 -11
-16 -28 -28 -37 -11 -10 -19 -20 -16 -22 5 -5 55 41 298 274 204 197 369 333
677 560 98 72 313 211 435 282 424 246 805 421 1175 540 165 53 203 64 412
118 87 22 176 46 198 54 22 7 68 19 103 26 34 6 61 13 59 15 -4 4 -255 -23
-332 -36 -39 -6 -63 -6 -69 0 -7 7 -4 10 6 10 9 0 18 3 20 8 6 14 276 92 322
92 11 0 17 3 13 6 -3 4 -65 -3 -137 -16 -72 -12 -134 -20 -136 -17 -3 3 8 8
25 12 17 4 31 11 31 17 0 6 7 7 16 4 13 -5 14 -4 6 7 -7 8 -9 17 -5 20 3 4 -6
7 -21 7 -15 0 -36 5 -47 11 -26 13 -144 13 -257 -1 -274 -35 -758 -203 -1141
-394 -83 -42 -151 -78 -151 -81 0 -3 13 -35 30 -71 28 -62 31 -84 10 -84 -8 0
-19 18 -62 104 -11 21 -28 47 -38 58 -10 11 -20 32 -24 48 -3 16 -18 47 -34
68 -22 32 -28 50 -27 92 l0 52 235 127 c267 144 523 291 684 394 61 38 134 83
161 99 106 64 380 260 500 358 76 62 205 200 233 250 56 97 35 169 -53 186
-62 11 -232 -4 -349 -31 -129 -30 -154 -31 -71 -5 88 29 266 62 373 69 51 3
93 11 95 16 4 17 -94 14 -198 -6z m-460 -145 c-95 -32 -124 -40 -113 -29 10
10 173 64 193 64 11 0 -25 -16 -80 -35z m-154 -49 c-18 -8 -38 -15 -45 -14
-15 1 46 28 64 28 8 0 0 -6 -19 -14z m-84 -31 c-3 -3 -12 -4 -19 -1 -8 3 -5 6
6 6 11 1 17 -2 13 -5z m-977 -1298 c0 -8 8 -17 18 -20 11 -4 25 -17 32 -31 7
-13 17 -22 22 -19 4 3 8 -3 8 -13 0 -10 9 -29 20 -43 11 -14 20 -35 20 -47 0
-12 12 -36 27 -54 15 -17 39 -56 54 -86 l27 -54 -52 -29 c-57 -33 -86 -38 -86
-14 0 8 -12 41 -26 72 -29 66 -29 66 -71 126 -18 26 -33 55 -33 65 0 10 -6 24
-14 30 -24 20 -30 70 -12 90 9 10 16 23 16 29 0 7 11 12 25 12 15 0 25 -6 25
-14z"/>
<path d="M10095 13461 c-7 -13 30 -24 54 -16 35 11 265 -29 419 -72 91 -25 51
-24 -64 2 -149 34 -279 47 -345 35 -161 -31 -127 -170 92 -374 124 -116 392
-315 579 -431 19 -12 62 -39 95 -61 165 -107 505 -304 815 -472 130 -71 165
-94 165 -110 0 -12 3 -24 7 -27 9 -9 -13 -65 -39 -102 -13 -17 -23 -38 -23
-46 0 -24 -121 -227 -136 -227 -21 0 -18 13 22 92 28 56 33 73 22 80 -77 50
-429 211 -613 280 -327 123 -527 174 -757 194 -67 6 -85 3 -133 -16 -30 -12
-55 -26 -55 -31 0 -5 0 -12 -1 -16 0 -4 24 -15 53 -25 59 -20 54 -19 -156 17
-81 14 -150 25 -152 23 -1 -2 37 -14 86 -27 50 -13 90 -28 90 -33 0 -5 9 -6
20 -3 11 3 20 2 20 -3 0 -5 16 -13 35 -16 19 -4 35 -12 35 -18 0 -10 -24 -9
-140 7 -14 2 -65 6 -115 9 l-90 6 55 -14 c30 -7 91 -21 134 -31 55 -12 75 -20
65 -26 -9 -6 -2 -7 19 -3 21 4 32 3 32 -5 0 -7 4 -10 9 -6 5 3 12 1 16 -5 3
-5 14 -10 24 -10 23 0 69 -14 331 -97 211 -68 404 -142 545 -208 344 -162 597
-296 775 -410 259 -166 522 -347 560 -385 3 -3 41 -34 85 -70 44 -36 91 -75
105 -86 14 -12 48 -41 75 -64 116 -98 281 -257 478 -460 108 -111 142 -136 90
-67 -16 20 -53 74 -83 118 -30 45 -63 90 -72 100 -33 35 -18 43 17 9 19 -19
35 -30 35 -26 0 4 44 -36 97 -91 54 -54 91 -89 83 -78 -8 11 -18 24 -22 30
-33 44 -125 155 -190 227 -43 47 -78 89 -78 93 0 4 47 -39 105 -96 58 -57 109
-105 114 -107 8 -3 14 18 27 95 5 27 -5 48 -72 150 -109 166 -343 399 -614
614 -177 139 -422 309 -446 309 -5 0 -28 -32 -52 -70 l-44 -71 -36 22 c-20 13
-49 31 -65 42 l-28 19 20 31 c40 67 61 103 68 117 12 28 96 165 104 170 4 3
10 17 14 31 3 14 17 37 31 52 13 14 24 33 24 41 0 40 85 42 110 3 7 -12 12
-40 11 -63 l-1 -42 212 -97 c711 -328 1315 -549 1653 -606 138 -24 349 -23
397 1 40 19 46 66 17 127 -40 84 -229 261 -469 439 -266 198 -363 263 -740
497 -261 162 -661 377 -1040 561 -285 138 -419 195 -795 339 -66 25 -151 57
-190 72 -38 15 -126 49 -195 76 -120 47 -162 60 -130 39 12 -7 10 -9 -8 -7
-12 1 -21 6 -18 13 5 12 -34 34 -59 34 -8 0 -15 5 -15 10 0 6 -5 10 -11 10
-12 0 -213 73 -266 96 -17 8 -35 14 -40 14 -25 0 -85 23 -75 29 7 4 8 12 2 21
-6 8 -10 10 -10 4 0 -17 -44 -23 -98 -12 -224 44 -355 57 -367 39z m693 -153
c50 -16 92 -32 92 -34 0 -10 -188 47 -218 66 -21 14 -3 9 126 -32z m142 -48
c24 -15 7 -19 -20 -5 -15 8 -19 14 -10 14 8 1 22 -3 30 -9z m80 -30 c18 -12 2
-12 -25 0 -13 6 -15 9 -5 9 8 0 22 -4 30 -9z m-737 -1187 c-7 -2 -19 -2 -25 0
-7 3 -2 5 12 5 14 0 19 -2 13 -5z m1749 -138 c6 -14 15 -25 20 -25 14 0 9 -38
-12 -75 -11 -20 -20 -44 -20 -55 0 -11 -5 -20 -10 -20 -6 0 -15 -11 -20 -25
-5 -14 -17 -28 -25 -31 -8 -4 -15 -11 -15 -18 0 -6 -8 -27 -18 -47 -10 -19
-26 -56 -35 -81 l-18 -47 -42 17 c-24 9 -53 25 -66 34 l-23 16 23 44 c13 24
26 45 29 48 18 16 50 71 50 85 0 37 128 204 158 205 7 0 18 -11 24 -25z m1019
-1352 c13 -17 13 -17 -6 -3 -11 8 -22 16 -24 17 -2 2 0 3 6 3 6 0 17 -8 24
-17z"/>
<path d="M7418 13423 c-8 -10 -4 -11 21 -2 17 6 31 12 31 14 0 9 -42 -1 -52
-12z"/>
<path d="M5575 12740 c-3 -5 -3 -10 2 -10 4 0 1 -4 -7 -10 -9 -5 -19 -5 -26 1
-7 6 -45 9 -86 8 -40 -1 -85 1 -101 5 -15 5 -61 5 -102 1 -58 -5 -73 -10 -68
-21 5 -13 1 -16 -29 -18 -7 -1 -16 -5 -20 -11 -5 -6 -12 -5 -17 5 -9 12 -11
12 -16 -2 -4 -10 -30 -29 -58 -43 -85 -41 -112 -61 -112 -81 0 -10 -7 -20 -16
-22 -11 -2 -14 -11 -11 -32 2 -17 0 -30 -6 -30 -6 0 -10 -12 -9 -27 2 -19 9
-29 22 -32 11 -2 28 -9 38 -16 15 -10 27 -9 71 9 29 12 64 29 77 37 13 9 92
49 174 89 83 41 159 81 170 91 11 10 54 32 95 51 58 25 75 37 72 51 -4 18 -27
23 -37 7z"/>
<path d="M12380 12740 c0 -5 5 -10 10 -10 6 0 10 5 10 10 0 6 -4 10 -10 10 -5
0 -10 -4 -10 -10z"/>
<path d="M12435 12721 c-11 -5 -24 -6 -30 -3 -5 2 -2 -3 7 -14 16 -16 19 -17
30 -2 7 9 20 18 28 21 13 5 13 5 0 6 -8 0 -24 -4 -35 -8z"/>
<path d="M12482 12712 c-43 -4 -40 -33 5 -47 17 -6 51 -24 75 -41 24 -17 53
-34 64 -38 12 -4 68 -31 124 -61 56 -30 108 -55 115 -55 7 0 18 -6 24 -14 18
-21 163 -79 170 -69 3 5 22 14 41 19 32 9 35 13 34 48 -1 20 -9 45 -18 55 -9
10 -16 24 -16 32 0 15 -44 48 -102 75 -21 10 -38 21 -38 26 0 4 -8 8 -19 8
-10 0 -21 8 -24 19 -3 14 -18 20 -61 25 -31 4 -56 12 -56 17 0 9 -234 10 -318
1z"/>
<path d="M8615 12018 c-636 -50 -1224 -189 -1755 -417 -178 -76 -494 -230
-498 -242 -2 -5 -10 -9 -17 -9 -8 0 -66 -31 -130 -70 -64 -38 -118 -70 -119
-70 -4 0 -90 -56 -131 -86 -11 -8 -42 -28 -70 -46 -27 -18 -52 -35 -55 -38 -3
-3 -30 -24 -60 -45 -30 -22 -62 -45 -70 -52 -8 -7 -51 -40 -95 -73 -367 -282
-785 -718 -1040 -1085 -132 -191 -170 -249 -253 -385 -90 -149 -231 -424 -287
-560 -31 -76 -45 -108 -73 -170 -59 -134 -161 -447 -222 -685 -139 -545 -190
-1205 -135 -1756 24 -235 84 -591 140 -819 39 -164 188 -604 256 -758 129
-295 316 -654 444 -852 84 -132 114 -185 129 -235 14 -41 32 -70 75 -114 78
-81 135 -143 287 -311 169 -186 433 -442 553 -535 35 -28 71 -57 80 -65 26
-23 103 -84 131 -103 14 -9 50 -36 81 -59 31 -24 66 -50 79 -58 12 -8 38 -27
58 -42 19 -16 38 -28 42 -28 4 0 19 -10 34 -23 14 -13 52 -36 84 -51 31 -16
71 -39 87 -51 17 -12 59 -37 95 -56 36 -18 83 -46 104 -61 21 -16 42 -28 46
-28 6 0 184 -97 220 -120 22 -14 181 -86 210 -95 14 -4 30 -11 35 -15 6 -4 22
-10 37 -14 15 -3 33 -12 40 -19 15 -13 52 -29 148 -59 36 -11 71 -25 79 -31 8
-7 24 -10 37 -9 15 2 26 -3 30 -12 4 -11 19 -16 45 -16 32 0 37 -3 32 -16 -5
-14 -2 -16 19 -11 17 5 30 2 38 -8 7 -8 19 -15 27 -15 8 0 34 -9 58 -20 25
-11 66 -23 92 -27 27 -3 53 -9 58 -13 6 -4 37 -12 70 -19 33 -7 84 -20 112
-28 29 -9 70 -16 90 -17 21 0 41 -4 44 -9 3 -4 23 -10 45 -12 21 -3 79 -12
128 -20 49 -9 103 -17 120 -20 17 -2 31 -5 31 -6 0 -4 263 -29 425 -40 217
-14 704 -6 885 16 231 28 490 72 620 105 44 11 112 27 150 35 64 13 114 28
350 102 89 28 104 33 158 57 21 9 46 16 57 16 10 0 21 4 24 9 3 5 22 12 41 15
19 4 35 11 35 16 0 6 6 10 13 10 40 0 637 288 645 311 2 5 10 9 18 9 8 0 17 7
20 15 4 8 14 15 24 15 10 0 25 6 33 14 16 16 138 76 154 76 6 0 10 -8 9 -18
-1 -12 9 -18 35 -22 25 -3 35 -10 33 -20 -1 -8 -6 -30 -9 -47 -9 -42 0 -42 65
2 29 19 57 35 64 35 7 0 22 -17 34 -37 11 -21 42 -65 69 -98 26 -33 54 -72 62
-87 7 -14 30 -47 50 -72 20 -24 54 -70 76 -102 22 -31 45 -62 50 -68 22 -25
113 -162 113 -171 0 -5 -7 -18 -16 -29 -16 -18 -16 -18 6 -12 32 10 57 -1 71
-30 6 -15 33 -54 59 -87 26 -34 63 -85 82 -114 63 -94 283 -398 294 -406 6 -4
23 -5 38 -3 21 4 26 2 21 -9 -3 -8 0 -15 6 -15 6 0 8 -6 5 -14 -3 -7 6 -23 20
-34 14 -11 26 -27 26 -36 0 -8 9 -20 19 -26 21 -11 151 -183 151 -200 0 -5 4
-10 10 -10 5 0 41 -44 81 -98 40 -53 75 -99 78 -102 3 -3 39 -49 79 -102 75
-100 91 -110 133 -88 19 11 19 12 -7 58 -15 26 -61 99 -102 162 -41 63 -91
140 -110 170 -20 30 -47 72 -61 93 -14 21 -30 45 -36 55 -5 10 -22 33 -37 53
-16 20 -28 40 -28 44 0 4 -11 23 -25 41 -14 18 -42 63 -62 101 -21 37 -76 122
-122 187 -134 189 -167 236 -228 326 -32 47 -79 113 -106 147 -41 53 -47 65
-37 82 9 17 8 20 -7 14 -13 -5 -15 -3 -10 11 5 12 2 16 -11 14 -15 -3 -45 34
-129 162 -9 14 -31 43 -48 65 -26 33 -136 192 -243 352 -13 19 -21 41 -18 48
2 7 30 32 60 55 57 41 69 60 40 60 -11 0 -14 5 -10 16 9 24 -4 38 -18 18 -17
-22 -36 -10 -29 17 4 14 0 25 -11 31 -16 9 -15 13 11 40 15 17 51 47 78 68 28
21 69 55 91 76 23 22 58 53 79 69 247 203 601 586 846 915 70 94 212 311 269
410 23 41 56 98 71 125 39 66 156 302 195 390 17 39 45 102 62 140 111 251
213 583 302 985 22 100 61 362 66 440 2 30 8 93 14 140 6 47 10 101 9 120 -1
19 -1 152 0 296 0 143 -1 291 -4 330 -7 82 -23 230 -29 261 -3 11 -7 43 -11
70 -31 236 -51 342 -131 678 -66 278 -189 637 -299 870 -13 28 -38 82 -55 120
-207 448 -488 873 -841 1270 -123 139 -322 341 -418 425 -41 36 -79 70 -85 75
-24 23 -265 214 -316 251 -132 97 -335 234 -346 234 -3 0 -28 16 -54 35 -26
19 -86 56 -132 82 -45 25 -110 61 -143 80 -33 19 -80 43 -105 54 -25 11 -65
31 -90 44 -50 26 -187 86 -265 116 -53 21 -61 24 -138 58 -26 12 -55 22 -65
24 -9 2 -39 13 -66 25 -27 12 -55 22 -62 22 -7 0 -28 6 -46 14 -18 7 -73 26
-123 41 -49 15 -101 30 -115 35 -14 4 -43 12 -65 18 -22 6 -69 18 -105 28 -80
21 -132 33 -190 43 -25 5 -81 16 -125 25 -110 22 -395 64 -480 71 -258 21
-353 25 -559 24 -127 -1 -280 -6 -341 -11z m880 -312 c531 -57 1017 -180 1483
-377 288 -122 632 -307 862 -463 338 -229 719 -560 940 -816 36 -41 68 -77 71
-80 10 -8 107 -128 169 -210 30 -40 60 -77 65 -84 49 -53 171 -230 291 -421
95 -152 281 -511 331 -640 69 -178 115 -308 163 -470 52 -176 57 -192 85 -310
49 -212 65 -301 105 -612 16 -126 31 -499 25 -651 -11 -286 -27 -448 -75 -757
-5 -27 -22 -113 -40 -190 -17 -77 -38 -169 -45 -206 -7 -36 -34 -132 -60 -215
-26 -82 -50 -161 -52 -176 -3 -16 -9 -28 -14 -28 -5 0 -9 -12 -9 -26 0 -14 -7
-33 -16 -41 -13 -13 -15 -28 -10 -67 4 -34 3 -46 -3 -36 -5 8 -8 17 -5 21 2 4
0 10 -5 13 -5 4 -8 -16 -7 -44 2 -41 -1 -50 -14 -50 -9 0 -22 -11 -28 -24 -8
-19 -7 -27 6 -41 16 -16 16 -17 -3 -11 -31 9 -52 -37 -45 -97 6 -50 -4 -73
-15 -37 -9 29 -28 25 -23 -5 3 -14 1 -28 -3 -31 -5 -3 -9 -10 -9 -15 0 -6 4
-8 9 -4 19 11 22 -16 5 -50 -10 -23 -23 -35 -36 -35 -14 0 -18 -5 -14 -15 3
-10 -1 -15 -12 -15 -9 0 -22 -12 -29 -26 -10 -22 -10 -24 8 -19 25 8 25 -10
-1 -42 -11 -14 -20 -32 -20 -39 0 -8 -9 -14 -20 -14 -11 0 -20 -4 -20 -10 0
-5 6 -7 14 -4 22 8 8 -32 -19 -58 -13 -12 -21 -28 -18 -35 3 -8 -7 -18 -23
-26 -24 -10 -29 -19 -31 -50 -1 -21 -11 -47 -23 -59 -11 -12 -20 -25 -20 -29
0 -5 -11 -20 -25 -35 -13 -14 -22 -30 -19 -35 8 -13 -15 -49 -31 -49 -8 0 -15
-8 -16 -17 0 -10 -9 -31 -19 -48 -11 -16 -28 -48 -39 -71 -11 -22 -28 -47 -37
-55 -9 -7 -39 -47 -67 -89 -28 -41 -53 -77 -56 -80 -13 -11 -51 -70 -51 -79 0
-5 -7 -11 -15 -15 -8 -3 -15 -11 -15 -17 0 -7 -22 -34 -50 -60 -27 -25 -47
-49 -43 -52 9 -9 -129 -164 -293 -330 -96 -97 -231 -220 -319 -289 -44 -35
-87 -70 -95 -78 -28 -28 -193 -148 -280 -204 -379 -246 -681 -408 -950 -510
-25 -10 -58 -24 -73 -32 -16 -8 -35 -14 -43 -14 -8 0 -29 -7 -46 -16 -17 -9
-59 -24 -92 -34 -34 -9 -101 -30 -151 -45 -49 -15 -106 -31 -125 -35 -19 -5
-62 -16 -95 -25 -78 -21 -113 -29 -210 -49 -44 -9 -102 -21 -130 -26 -121 -25
-606 -87 -695 -88 -305 -6 -683 4 -765 19 -27 5 -102 13 -165 19 -63 6 -160
19 -215 29 -55 11 -122 22 -150 26 -59 7 -145 27 -270 62 -49 13 -108 29 -130
35 -22 6 -62 19 -90 28 -27 10 -86 28 -130 41 -44 13 -89 28 -100 35 -11 7
-31 15 -45 19 -23 6 -104 35 -155 56 -11 4 -60 26 -109 48 -49 23 -95 41 -103
41 -17 0 -65 30 -76 47 -4 7 -18 13 -31 13 -13 0 -29 6 -35 13 -6 8 -30 19
-53 27 -24 7 -55 21 -70 31 -14 11 -30 19 -35 19 -6 0 -23 11 -39 25 -16 14
-33 25 -38 25 -5 0 -18 8 -28 17 -23 20 -77 54 -135 83 -22 12 -49 30 -59 41
-9 10 -24 19 -31 19 -8 0 -26 9 -40 20 -14 11 -32 20 -39 20 -8 0 -14 4 -14 9
0 20 -62 71 -87 71 -16 0 -27 7 -30 20 -3 11 -11 20 -17 20 -7 0 -25 13 -40
29 -16 16 -39 32 -53 35 -23 6 -50 27 -116 89 -17 15 -33 27 -36 27 -3 0 -38
31 -78 68 -137 128 -153 142 -162 142 -5 0 -13 9 -16 20 -3 11 -13 20 -20 20
-8 0 -29 19 -47 43 -18 24 -52 60 -75 81 -24 21 -43 44 -43 52 0 7 -9 18 -20
24 -11 6 -20 15 -20 21 0 12 -86 99 -99 99 -5 0 -8 6 -7 14 1 13 -66 98 -116
147 -16 15 -28 30 -28 33 0 8 -35 58 -70 102 -14 17 -32 41 -40 54 -8 12 -22
32 -31 44 -9 11 -19 31 -23 44 -4 12 -12 20 -17 16 -6 -3 -13 3 -16 14 -3 11
-11 23 -19 26 -8 3 -14 10 -14 16 0 6 -11 26 -25 44 -14 18 -25 37 -25 43 0 5
-9 18 -20 28 -11 10 -20 26 -20 37 0 10 -5 18 -10 18 -6 0 -16 12 -23 28 -6
15 -17 31 -24 35 -7 4 -13 15 -13 24 0 8 -11 28 -25 45 -14 16 -25 35 -25 42
0 7 -11 35 -26 61 -14 26 -23 54 -20 61 3 7 -7 26 -22 42 -15 16 -26 39 -26
50 1 15 -8 27 -25 35 -19 9 -27 21 -29 45 -2 18 -7 30 -12 27 -4 -3 -6 5 -2
17 4 16 2 19 -8 13 -10 -6 -12 -4 -7 8 8 20 -6 63 -19 60 -5 -2 -9 5 -9 15 0
15 -52 129 -65 142 -15 15 -30 53 -30 78 0 16 -3 32 -6 35 -4 4 -8 20 -9 37
-2 17 -11 40 -20 50 -10 11 -15 26 -11 35 3 9 -1 18 -9 21 -9 4 -15 19 -15 36
0 16 -7 36 -15 44 -8 9 -15 26 -15 40 0 13 -4 32 -9 42 -5 9 -15 37 -22 62 -7
25 -17 51 -22 58 -5 6 -6 12 -2 12 4 0 3 6 -3 13 -5 6 -13 33 -17 60 -4 26
-11 47 -15 47 -5 0 -11 19 -15 43 -4 23 -16 78 -27 121 -26 105 -72 346 -83
431 -3 22 -7 51 -10 65 -35 172 -55 755 -36 1040 58 862 331 1670 808 2400
130 198 292 420 343 470 3 3 25 30 50 60 208 253 527 550 837 778 298 219 730
467 978 562 33 12 76 31 95 40 93 48 396 151 625 214 306 83 655 143 965 165
183 14 697 6 875 -13z m4215 -7035 c0 -5 -7 -11 -15 -15 -9 -3 -15 0 -15 9 0
8 7 15 15 15 8 0 15 -4 15 -9z"/>
<path d="M8818 11110 c-31 -11 -105 -30 -165 -43 -101 -22 -108 -26 -108 -48
0 -22 4 -24 60 -27 101 -5 95 24 95 -424 l0 -389 -24 -24 c-16 -16 -41 -26
-75 -31 -45 -6 -51 -9 -51 -30 l0 -24 245 0 245 0 0 24 c0 20 -6 24 -47 30
-61 8 -82 25 -94 73 -5 21 -8 236 -7 482 1 268 -2 446 -8 447 -5 1 -35 -6 -66
-16z"/>
<path d="M9323 11121 c-66 -17 -137 -67 -181 -127 -23 -32 -49 -72 -58 -88
-15 -27 -15 -30 3 -48 19 -18 20 -18 62 32 57 67 109 94 186 94 77 1 122 -24
153 -84 21 -40 23 -56 20 -136 -3 -82 -8 -100 -41 -165 -51 -103 -121 -192
-274 -350 -86 -89 -133 -144 -133 -158 l0 -21 325 0 325 0 6 28 c4 15 17 69
30 121 13 51 21 98 18 102 -13 22 -50 8 -69 -27 -34 -64 -48 -68 -247 -73 -98
-2 -178 0 -178 5 0 4 80 89 178 188 156 158 183 191 217 258 33 68 38 87 39
150 1 133 -53 227 -160 279 -51 24 -164 35 -221 20z"/>
<path d="M6795 10605 c-44 -13 -115 -31 -158 -40 -70 -15 -78 -20 -75 -39 3
-18 11 -22 65 -26 37 -3 69 -11 78 -20 13 -13 15 -70 17 -390 2 -206 0 -387
-5 -402 -9 -33 -34 -48 -96 -57 -41 -5 -46 -9 -46 -31 l0 -25 245 0 245 0 0
25 c0 19 -6 26 -25 28 -62 6 -101 23 -110 48 -6 15 -10 219 -10 490 l0 464
-22 -1 c-13 -1 -59 -11 -103 -24z"/>
<path d="M7355 10605 c-44 -13 -115 -31 -158 -40 -70 -15 -78 -20 -75 -39 3
-18 12 -22 65 -27 34 -3 69 -12 78 -19 13 -11 15 -63 15 -401 0 -388 0 -388
-22 -414 -17 -19 -37 -28 -73 -33 -45 -6 -50 -10 -50 -32 l0 -25 243 -3 243
-2 -3 27 c-3 24 -8 29 -43 34 -55 7 -83 25 -92 57 -5 15 -8 233 -8 485 0 527
16 471 -120 432z"/>
<path d="M11009 10625 c-7 -6 -178 -50 -252 -65 -51 -10 -58 -14 -55 -33 3
-19 11 -23 66 -28 36 -3 70 -13 78 -21 13 -13 16 -72 17 -389 1 -206 -1 -386
-6 -401 -9 -33 -38 -50 -97 -58 -40 -4 -45 -8 -45 -30 l0 -25 245 0 245 0 0
25 c0 19 -6 26 -25 28 -59 6 -97 22 -108 47 -9 19 -12 158 -12 490 l0 465 -23
0 c-13 0 -26 -2 -28 -5z"/>
<path d="M5486 10130 c-47 -49 -86 -93 -86 -97 1 -11 71 -63 85 -63 21 0 95
80 95 102 0 6 3 9 6 5 8 -8 64 44 64 60 0 7 -4 13 -9 13 -5 0 -18 16 -30 35
-11 19 -24 35 -29 35 -5 0 -48 -40 -96 -90z"/>
<path d="M8997 9594 c-4 -4 -7 -79 -7 -166 l0 -158 35 0 35 0 -2 163 -3 162
-25 3 c-14 2 -29 0 -33 -4z"/>
<path d="M8720 9473 c0 -46 14 -123 21 -123 10 0 12 83 3 118 -7 26 -24 30
-24 5z"/>
<path d="M9300 9451 c0 -21 -3 -53 -6 -70 -5 -24 -3 -31 10 -31 11 0 16 9 16
33 0 17 3 49 6 70 5 30 4 37 -10 37 -12 0 -16 -10 -16 -39z"/>
<path d="M8436 9441 c-12 -19 15 -131 31 -131 9 0 12 7 9 18 -3 9 -8 35 -12
57 -8 51 -19 72 -28 56z"/>
<path d="M9596 9439 c-8 -27 -26 -108 -26 -119 0 -7 6 -10 12 -8 16 6 40 120
28 132 -6 6 -11 4 -14 -5z"/>
<path d="M8148 9364 c-9 -8 32 -124 43 -124 13 0 11 16 -8 77 -16 51 -23 60
-35 47z"/>
<path d="M9861 9308 c-14 -40 -18 -65 -11 -72 6 -6 11 -4 15 5 37 102 42 129
26 129 -5 0 -19 -28 -30 -62z"/>
<path d="M5340 9250 c-58 -16 -130 -34 -161 -40 -43 -8 -58 -16 -62 -31 -6
-23 -2 -25 76 -34 92 -10 88 10 85 -434 -3 -434 1 -412 -92 -430 -54 -10 -71
-22 -63 -45 6 -14 38 -16 252 -16 l245 0 0 25 c0 20 -6 25 -37 30 -61 10 -90
25 -102 51 -8 17 -11 166 -11 489 0 366 -3 465 -12 464 -7 0 -60 -13 -118 -29z"/>
<path d="M5900 9271 c-96 -31 -158 -91 -209 -202 -42 -89 -61 -190 -61 -324 0
-203 48 -360 139 -453 62 -63 118 -86 216 -87 68 0 89 4 137 28 97 47 158 137
199 292 30 112 31 326 1 436 -39 146 -106 245 -196 291 -45 23 -179 35 -226
19z m146 -72 c75 -62 118 -324 96 -582 -21 -250 -64 -347 -154 -347 -104 0
-158 168 -158 490 1 313 57 470 163 456 21 -2 45 -10 53 -17z"/>
<path d="M12300 9271 c-84 -26 -130 -65 -200 -170 -33 -49 -41 -68 -33 -80 17
-28 37 -22 65 19 41 59 119 100 191 100 63 0 87 -9 130 -48 35 -33 34 -43 -6
-66 -375 -216 -797 -430 -1219 -617 l-177 -78 -233 -183 c-128 -100 -377 -295
-553 -433 -176 -138 -401 -313 -500 -390 -166 -128 -251 -194 -363 -283 -24
-19 -45 -33 -46 -31 -2 2 13 33 33 69 118 206 106 202 -20 -8 l-81 -133 25
-32 c13 -18 36 -56 51 -84 25 -50 40 -64 48 -45 3 7 174 109 433 257 179 103
633 364 755 435 69 40 185 107 258 149 73 42 147 84 165 95 18 10 93 54 168
97 128 74 146 88 300 241 172 171 382 359 609 548 74 62 147 123 162 136 48
42 225 174 233 174 13 0 -5 -83 -29 -136 -40 -88 -119 -194 -243 -329 -66 -71
-134 -142 -152 -158 -17 -15 -31 -36 -31 -47 0 -20 7 -20 329 -20 l329 0 31
126 c18 70 30 128 29 129 -2 1 -13 5 -25 9 -17 6 -26 -1 -50 -36 -43 -64 -55
-68 -252 -68 l-174 0 164 168 c239 243 275 305 267 461 -4 79 -7 93 -37 140
-35 54 -92 100 -150 119 -38 13 -162 15 -201 3z m-849 -961 c12 -7 19 -21 19
-40 0 -36 -3 -38 -400 -305 -162 -109 -311 -211 -330 -225 -19 -15 -221 -152
-449 -304 -424 -283 -448 -296 -474 -255 -20 31 1 66 65 110 35 23 168 114
297 203 128 89 240 166 249 171 8 6 99 66 201 135 632 424 777 520 789 520 7
0 22 -5 33 -10z"/>
<path d="M7876 9261 c-7 -11 42 -121 55 -121 14 0 11 13 -17 74 -27 58 -29 62
-38 47z"/>
<path d="M10127 9203 c-14 -31 -23 -61 -20 -66 8 -13 19 2 47 66 19 42 22 57
12 57 -7 0 -25 -26 -39 -57z"/>
<path d="M7564 9205 c-19 -14 -18 -15 10 -67 53 -99 131 -228 137 -228 4 0 16
8 28 18 l21 17 -77 137 c-43 76 -83 138 -89 138 -5 0 -19 -7 -30 -15z"/>
<path d="M10363 9080 c-81 -139 -81 -140 -60 -155 12 -8 26 -15 32 -15 5 0 30
37 55 82 25 45 60 106 78 136 17 30 32 58 32 62 0 5 -43 30 -53 30 -1 0 -39
-63 -84 -140z"/>
<path d="M7360 8965 c0 -15 74 -105 86 -105 16 0 16 0 -30 68 -16 23 -35 42
-42 42 -8 0 -14 -2 -14 -5z"/>
<path d="M10626 8921 c-36 -49 -44 -71 -26 -71 10 0 80 98 80 112 0 20 -21 4
-54 -41z"/>
<path d="M7130 8783 c1 -13 88 -103 99 -103 19 0 12 13 -34 63 -39 43 -66 59
-65 40z"/>
<path d="M10846 8734 c-21 -24 -36 -47 -33 -51 8 -8 31 11 68 59 43 53 13 47
-35 -8z"/>
<path d="M6930 8572 c0 -18 89 -94 101 -87 8 6 -3 21 -37 51 -48 43 -64 52
-64 36z"/>
<path d="M11050 8535 c-24 -24 -41 -47 -37 -51 7 -8 107 73 107 87 0 21 -29 6
-70 -36z"/>
<path d="M8320 8370 c-11 -11 -20 -33 -20 -50 0 -50 30 -70 104 -70 67 0 94
-15 82 -45 -4 -12 -24 -15 -91 -15 -84 0 -86 -1 -83 -22 3 -21 9 -23 78 -26
100 -4 145 9 159 48 11 33 2 72 -21 87 -7 4 -44 10 -82 13 -52 4 -72 9 -80 23
-17 27 8 37 97 37 70 0 77 2 77 20 0 19 -7 20 -100 20 -87 0 -103 -3 -120 -20z"/>
<path d="M8600 8264 l0 -125 28 3 c25 3 27 6 30 56 l3 53 52 -3 52 -3 3 -53
c3 -50 4 -53 28 -50 25 3 26 6 26 73 1 172 0 175 -26 175 -23 0 -25 -5 -28
-47 l-3 -48 -52 -3 -53 -3 0 50 c0 50 -1 51 -30 51 l-30 0 0 -126z"/>
<path d="M8960 8380 c0 -6 -22 -60 -50 -120 -27 -60 -50 -112 -50 -115 0 -3
13 -5 30 -5 23 0 33 7 45 30 14 28 20 30 70 30 50 0 56 -2 70 -30 12 -23 22
-30 45 -30 17 0 30 2 30 4 0 3 -24 58 -54 123 l-54 118 -41 3 c-25 2 -41 -1
-41 -8z m80 -127 c0 -8 -13 -13 -35 -13 -40 0 -42 5 -18 55 l17 36 18 -33 c9
-18 17 -39 18 -45z"/>
<path d="M9182 8268 l3 -123 28 -3 c26 -3 27 -2 27 47 0 51 0 51 33 51 59 0
75 -10 90 -54 11 -33 19 -42 40 -44 25 -3 27 0 27 32 0 23 -7 43 -20 56 l-20
20 20 20 c11 11 20 33 20 50 0 57 -27 70 -145 70 l-106 0 3 -122z m181 60 c19
-29 -9 -48 -69 -48 l-54 0 0 35 0 36 56 -3 c40 -2 60 -8 67 -20z"/>
<path d="M9482 8268 l3 -123 25 0 c22 0 25 5 28 43 l3 42 65 0 c60 0 68 3 96
30 25 26 29 36 24 63 -11 56 -35 67 -147 67 l-100 0 3 -122z m176 45 l3 -33
-50 0 c-28 0 -54 -1 -58 -2 -5 -2 -9 14 -11 35 l-3 38 58 -3 c57 -3 58 -3 61
-35z"/>
<path d="M6744 8349 c-3 -6 -4 -12 -3 -13 80 -60 103 -75 110 -70 14 8 5 18
-51 58 -30 21 -52 31 -56 25z"/>
<path d="M6537 8270 c-15 -17 -24 -36 -21 -43 3 -6 41 -39 85 -71 96 -72 112
-92 38 -47 -109 64 -117 67 -134 45 -8 -10 -14 -23 -14 -29 0 -8 79 -56 252
-154 27 -15 29 -15 42 3 12 16 16 16 33 5 103 -74 510 -475 678 -669 l91 -105
339 -139 c186 -76 416 -169 509 -207 94 -38 182 -75 198 -83 l27 -15 29 62
c16 34 40 75 54 91 l26 28 -147 142 c-81 77 -196 189 -257 247 -60 58 -171
163 -245 235 -168 161 -190 177 -270 198 -299 81 -670 228 -1035 411 -132 66
-243 121 -246 123 -4 1 -18 -11 -32 -28z m1094 -638 c107 -71 219 -144 249
-164 95 -61 543 -356 593 -390 69 -48 76 -109 14 -116 -28 -3 -196 101 -797
493 -52 34 -150 97 -217 141 -71 46 -124 87 -127 99 -9 33 20 65 58 65 26 0
76 -28 227 -128z"/>
<path d="M9645 8185 c-14 -13 -25 -33 -25 -43 0 -26 41 -62 71 -62 29 0 69 37
69 64 0 24 -45 66 -70 66 -11 0 -32 -11 -45 -25z m73 -1 c26 -18 28 -50 5 -76
-31 -35 -83 -12 -83 37 0 20 32 55 50 55 3 0 16 -7 28 -16z"/>
<path d="M9667 8174 c-10 -11 -8 -52 3 -59 6 -3 10 2 10 11 0 16 1 16 19 0 18
-16 19 -16 17 16 -1 25 -7 34 -22 36 -11 2 -23 0 -27 -4z m33 -14 c0 -5 -4
-10 -10 -10 -5 0 -10 5 -10 10 0 6 5 10 10 10 6 0 10 -4 10 -10z"/>
<path d="M6445 7840 c-5 -8 93 -60 115 -60 27 0 4 23 -46 45 -65 29 -61 28
-69 15z"/>
<path d="M11522 7820 c-35 -16 -61 -34 -57 -39 6 -11 30 -4 95 29 22 11 38 25
35 30 -4 6 -7 10 -8 10 -1 -1 -30 -14 -65 -30z"/>
<path d="M9588 7743 c-9 -10 -23 -34 -33 -53 -10 -19 -81 -143 -159 -275 -146
-247 -226 -388 -226 -399 0 -3 5 -6 10 -6 6 0 29 -12 51 -27 34 -23 42 -25 50
-12 5 7 95 154 200 324 254 412 245 392 208 439 -25 31 -77 36 -101 9z"/>
<path d="M6340 7565 c0 -7 22 -20 48 -28 26 -9 56 -19 65 -23 11 -4 17 -1 17
8 0 8 -26 22 -65 35 -49 16 -65 18 -65 8z"/>
<path d="M11623 7553 c-33 -10 -53 -21 -53 -30 0 -8 6 -13 13 -11 6 3 36 13
65 22 28 10 52 22 52 27 0 12 -15 10 -77 -8z"/>
<path d="M5072 7295 c-197 -44 -319 -248 -267 -443 16 -57 27 -75 75 -124 97
-97 216 -115 342 -52 l71 36 -7 -34 c-9 -49 -60 -147 -103 -199 -74 -90 -196
-167 -300 -190 -46 -11 -53 -15 -53 -36 0 -33 18 -37 102 -23 106 17 209 54
283 100 74 47 170 146 209 216 95 169 113 405 42 560 -69 151 -227 227 -394
189z m153 -98 c29 -28 48 -60 60 -97 22 -70 33 -303 16 -324 -20 -24 -106 -38
-156 -25 -50 13 -103 59 -129 112 -53 113 -39 270 31 342 30 31 40 35 85 35
46 0 54 -4 93 -43z"/>
<path d="M12843 7300 c-45 -9 -106 -39 -138 -67 -12 -10 -40 -44 -64 -76 -34
-47 -40 -61 -31 -73 18 -20 21 -19 77 35 116 112 272 85 298 -50 17 -92 -43
-174 -170 -230 -62 -27 -75 -37 -73 -53 3 -19 10 -21 83 -21 62 0 89 -5 120
-21 74 -38 112 -123 102 -229 -12 -123 -61 -185 -152 -193 -66 -5 -120 12
-191 63 -58 41 -77 43 -109 10 -37 -36 -33 -77 11 -113 145 -120 461 -23 586
180 60 98 63 207 7 291 -32 48 -104 101 -154 113 -49 11 -49 15 2 49 67 45
111 97 119 142 9 48 -10 118 -43 162 -49 64 -180 102 -280 81z"/>
<path d="M6262 7278 c6 -16 120 -40 132 -28 11 11 1 15 -64 29 -60 14 -72 13
-68 -1z"/>
<path d="M11696 7276 c-45 -11 -77 -37 -44 -36 35 2 122 28 126 38 4 14 -16
14 -82 -2z"/>
<path d="M6210 6990 c0 -5 16 -12 35 -15 19 -3 51 -7 70 -10 26 -5 35 -2 35 8
0 10 -17 16 -52 21 -72 8 -88 8 -88 -4z"/>
<path d="M11733 6993 c-29 -3 -43 -9 -43 -18 0 -11 11 -13 48 -9 72 8 92 13
92 24 0 10 -14 10 -97 3z"/>
<path d="M8935 6977 c-86 -28 -153 -86 -198 -171 -18 -33 -22 -58 -22 -131 0
-84 2 -95 34 -153 39 -72 74 -105 148 -139 104 -48 214 -39 311 24 206 135
180 447 -46 551 -67 31 -165 39 -227 19z"/>
<path d="M6110 6695 l0 -35 163 2 162 3 0 30 0 30 -162 3 -163 2 0 -35z"/>
<path d="M11604 6716 c-3 -8 -4 -23 -2 -33 3 -16 18 -18 166 -21 l162 -2 0 35
0 35 -160 0 c-131 0 -162 -3 -166 -14z"/>
<path d="M11694 6418 c-9 -14 -4 -15 69 -23 45 -5 67 -4 67 3 0 17 -127 35
-136 20z"/>
<path d="M6233 6413 c-30 -6 -29 -23 1 -23 46 0 116 13 116 21 0 9 -75 10
-117 2z"/>
<path d="M8763 6328 c-16 -29 -61 -105 -98 -168 -37 -63 -75 -128 -85 -145 -9
-16 -61 -106 -115 -200 -54 -93 -147 -257 -207 -364 -60 -106 -119 -210 -132
-230 -12 -20 -36 -61 -53 -91 -58 -105 -150 -267 -308 -540 -87 -151 -175
-304 -195 -340 -71 -126 -284 -497 -365 -635 -86 -145 -145 -257 -127 -240 6
6 43 64 83 130 40 66 115 190 167 275 52 85 116 191 142 235 55 93 181 299
285 465 39 63 94 153 122 200 28 47 97 159 153 250 57 91 153 246 213 345 61
99 127 207 147 240 21 33 81 132 135 220 54 88 121 197 149 243 28 45 60 97
70 115 11 18 49 78 84 135 35 57 62 104 60 106 -16 11 -81 46 -86 46 -4 0 -22
-24 -39 -52z"/>
<path d="M8900 6299 c0 -5 5 -7 10 -4 6 3 10 8 10 11 0 2 -4 4 -10 4 -5 0 -10
-5 -10 -11z"/>
<path d="M9005 6293 l-30 -4 3 -510 3 -510 -35 -95 c-41 -108 -41 -105 -22
-98 8 3 17 16 20 30 4 13 13 24 21 24 13 0 15 -81 15 -632 0 -348 3 -657 6
-685 7 -52 7 -53 40 -53 33 0 34 1 34 40 0 22 4 40 9 40 6 0 9 35 8 78 -1 42
-1 590 1 1218 l2 1140 28 11 c25 10 23 11 -23 10 -27 0 -63 -2 -80 -4z m-25
-1128 c0 -8 -4 -15 -10 -15 -5 0 -7 7 -4 15 4 8 8 15 10 15 2 0 4 -7 4 -15z"/>
<path d="M8846 6213 c-6 -14 -5 -15 5 -6 7 7 10 15 7 18 -3 3 -9 -2 -12 -12z"/>
<path d="M11650 6137 c0 -13 83 -37 127 -37 33 0 8 19 -39 30 -29 6 -61 14
-70 17 -11 2 -18 -1 -18 -10z"/>
<path d="M6293 6128 c-44 -9 -59 -28 -23 -28 36 0 120 22 120 31 0 11 -41 10
-97 -3z"/>
<path d="M6386 5851 c-28 -9 -52 -23 -54 -29 -5 -16 5 -15 68 8 30 11 56 20
57 20 2 0 3 5 3 10 0 14 -16 12 -74 -9z"/>
<path d="M11580 5861 c0 -5 24 -17 53 -27 28 -9 58 -19 65 -22 6 -2 12 2 12
10 0 9 -22 21 -53 31 -61 19 -77 21 -77 8z"/>
<path d="M11480 5598 c0 -12 97 -58 120 -58 27 0 4 20 -51 44 -70 30 -69 30
-69 14z"/>
<path d="M6480 5577 c-25 -12 -47 -22 -49 -24 -1 -1 0 -6 3 -12 7 -11 126 37
126 51 0 14 -33 8 -80 -15z"/>
<path d="M6613 5342 c-132 -77 -150 -95 -119 -121 17 -14 28 -9 176 77 127 74
122 69 103 98 -8 13 -18 24 -22 24 -3 0 -66 -35 -138 -78z"/>
<path d="M11269 5396 c-7 -14 -10 -27 -8 -29 2 -2 64 -39 138 -82 l135 -78 18
23 c10 12 18 25 18 29 -1 6 -241 145 -272 156 -13 5 -21 0 -29 -19z"/>
<path d="M12387 5178 c-244 -327 -367 -507 -367 -539 l0 -29 215 0 215 0 0
-90 c0 -83 -2 -93 -24 -115 -16 -16 -41 -26 -75 -31 -45 -6 -51 -9 -51 -30 l0
-24 235 0 235 0 0 24 c0 20 -6 25 -45 30 -77 12 -87 27 -89 136 l-1 95 78 3
77 3 0 44 0 44 -77 3 -78 3 -3 333 -2 332 -50 0 -49 0 -144 -192z m60 -475
c-2 -2 -73 -2 -157 -1 l-152 3 124 185 c68 102 137 203 153 226 l30 41 3 -225
c1 -124 1 -227 -1 -229z"/>
<path d="M5505 5336 c-156 -49 -238 -197 -193 -349 13 -43 89 -134 132 -156
14 -8 26 -17 26 -21 0 -4 -27 -24 -61 -45 -154 -95 -192 -200 -123 -336 93
-185 423 -211 588 -46 53 53 79 108 84 177 8 112 -36 192 -149 270 l-66 45 60
45 c86 65 112 108 112 184 -1 104 -70 195 -173 230 -55 19 -180 20 -237 2z
m175 -68 c44 -30 71 -84 77 -157 7 -70 -16 -147 -53 -182 l-24 -23 -54 26
c-68 34 -125 84 -142 125 -19 43 -18 127 1 164 35 67 132 90 195 47z m-73
-527 c81 -43 142 -97 159 -138 8 -18 14 -57 14 -88 0 -124 -91 -204 -199 -175
-85 23 -140 100 -149 207 -3 46 0 75 13 110 17 44 81 127 94 121 3 -2 34 -18
68 -37z"/>
<path d="M8571 5224 c-28 -35 -27 -86 2 -120 20 -22 32 -27 85 -29 50 -2 60 0
52 10 -7 9 -7 21 0 41 15 39 4 90 -23 109 -35 25 -92 19 -116 -11z m117 -27
c19 -39 3 -83 -28 -79 -16 1 -21 -2 -16 -13 8 -21 -17 -19 -45 4 -16 13 -23
29 -23 54 0 49 19 69 63 65 28 -2 39 -9 49 -31z"/>
<path d="M8750 5182 c0 -77 11 -99 55 -108 22 -4 38 0 58 16 25 20 27 27 27
91 0 88 -16 90 -22 3 -3 -50 -9 -70 -23 -80 -25 -18 -31 -18 -55 6 -16 16 -20
33 -20 80 0 33 -4 60 -10 60 -6 0 -10 -29 -10 -68z"/>
<path d="M9092 5165 c2 -50 7 -84 13 -83 6 2 10 17 10 33 0 25 4 31 27 33 22
3 32 -4 54 -38 17 -26 31 -37 37 -31 6 6 0 22 -16 43 -26 33 -26 34 -7 46 22
14 26 52 8 70 -7 7 -38 12 -70 12 l-59 0 3 -85z m115 49 c9 -23 -25 -46 -62
-42 -24 2 -29 8 -30 31 -2 26 0 27 42 27 31 0 45 -5 50 -16z"/>
<path d="M9250 5240 c0 -5 14 -10 30 -10 l30 0 0 -75 c0 -43 4 -75 10 -75 6 0
10 32 10 75 l0 75 30 0 c17 0 30 5 30 10 0 6 -30 10 -70 10 -40 0 -70 -4 -70
-10z"/>
<path d="M9410 5240 c0 -5 20 -10 45 -10 25 0 45 -2 45 -5 0 -3 -22 -33 -50
-67 -27 -34 -50 -66 -50 -70 0 -4 32 -8 71 -8 44 0 68 4 64 10 -3 6 -29 10
-56 10 l-51 0 56 67 c30 36 53 70 50 75 -7 12 -124 10 -124 -2z"/>
<path d="M11206 5112 c-6 -10 21 -36 71 -71 22 -15 34 -18 39 -10 3 6 2 14 -3
18 -5 3 -30 21 -55 39 -26 17 -49 28 -52 24z"/>
<path d="M6767 5073 c-31 -23 -45 -39 -39 -45 10 -10 112 58 112 74 0 16 -26
6 -73 -29z"/>
<path d="M11026 4893 c-7 -7 82 -103 96 -103 4 0 8 6 8 13 0 12 -14 26 -81 84
-9 7 -19 10 -23 6z"/>
<path d="M6952 4846 c-26 -25 -44 -48 -40 -52 8 -7 108 73 108 87 0 19 -23 7
-68 -35z"/>
<path d="M7160 4640 c-24 -28 -40 -53 -37 -56 5 -5 89 80 95 97 10 25 -21 3
-58 -41z"/>
<path d="M10830 4680 c0 -17 81 -100 91 -94 5 3 -9 28 -32 55 -39 47 -59 60
-59 39z"/>
<path d="M7385 4464 c-33 -44 -44 -74 -27 -74 8 1 70 83 78 105 12 31 -16 13
-51 -31z"/>
<path d="M10610 4500 c0 -20 74 -110 83 -101 5 5 -7 30 -29 60 -37 49 -54 62
-54 41z"/>
<path d="M10316 4435 c-18 -13 -16 -18 29 -97 27 -46 64 -109 83 -140 l34 -57
30 15 c27 14 28 17 16 37 -8 12 -45 75 -82 140 -37 64 -73 117 -79 117 -7 0
-20 -7 -31 -15z"/>
<path d="M13490 4290 c0 -5 5 -10 11 -10 5 0 7 5 4 10 -3 6 -8 10 -11 10 -2 0
-4 -4 -4 -10z"/>
<path d="M10120 4216 c0 -28 43 -116 57 -116 8 0 13 4 11 8 -1 4 -14 33 -27
65 -24 54 -41 73 -41 43z"/>
<path d="M7882 4167 c-24 -55 -27 -77 -13 -77 7 0 61 111 61 126 0 2 -6 4 -12
4 -7 0 -23 -24 -36 -53z"/>
<path d="M8153 4055 c-16 -50 -18 -65 -8 -65 14 0 57 114 47 124 -12 13 -19 3
-39 -59z"/>
<path d="M9852 4108 c3 -7 13 -37 22 -65 10 -29 22 -53 28 -53 6 0 8 8 5 18
-3 9 -11 38 -18 65 -8 27 -19 47 -27 47 -8 0 -12 -6 -10 -12z"/>
<path d="M8442 4014 c-23 -87 -24 -104 -10 -104 10 0 18 21 26 62 13 71 0 105
-16 42z"/>
<path d="M9580 4037 c0 -32 24 -127 31 -127 12 0 11 29 -2 90 -10 45 -29 70
-29 37z"/>
<path d="M8726 3983 c-10 -36 -10 -117 0 -120 11 -4 24 61 24 113 0 28 -16 32
-24 7z"/>
<path d="M9303 3934 c2 -36 8 -68 11 -71 14 -14 18 10 11 72 -9 87 -30 87 -22
-1z"/>
<path d="M6780 3938 c0 -2 -9 -61 -19 -132 -11 -72 -18 -134 -15 -138 14 -23
44 -5 69 41 15 27 38 54 51 60 16 7 97 11 218 11 l192 0 42 75 c23 41 42 77
42 80 0 5 -580 7 -580 3z"/>
<path d="M10829 3938 c-1 -2 -18 -119 -38 -261 l-37 -259 30 7 c175 37 269 22
337 -52 50 -53 64 -92 64 -178 0 -134 -54 -213 -152 -222 -64 -7 -121 10 -180
52 -87 63 -92 64 -124 25 -37 -44 -37 -75 1 -110 115 -108 357 -66 524 91 85
79 118 146 118 238 0 39 -7 82 -16 104 -34 77 -123 150 -210 171 -56 14 -155
7 -226 -14 -40 -12 -74 -20 -76 -17 -2 2 6 63 18 135 l21 132 208 0 207 0 25
74 c14 41 23 77 19 80 -5 6 -511 9 -513 4z"/>
<path d="M7437 3898 c-8 -12 -48 -77 -89 -143 -80 -128 -224 -364 -328 -535
-35 -58 -94 -153 -132 -211 -37 -58 -68 -112 -68 -119 0 -10 14 -11 61 -6 34
3 71 6 81 6 13 0 26 16 42 53 40 89 228 490 345 736 61 129 110 236 107 238
-2 3 -11 -6 -19 -19z"/>
<path d="M9190 3374 c-177 -40 -295 -105 -395 -216 -106 -118 -157 -254 -157
-418 -1 -213 84 -357 244 -415 74 -26 205 -18 276 19 114 58 186 159 201 282
20 171 -58 306 -201 349 -80 23 -133 19 -218 -19 -93 -42 -97 -34 -41 78 68
139 199 243 364 291 52 15 58 19 53 38 -3 12 -6 25 -6 30 0 9 2 10 -120 -19z
m-153 -505 c45 -17 91 -69 113 -126 24 -65 27 -186 5 -259 -36 -124 -163 -150
-239 -51 -58 76 -92 229 -80 355 7 60 9 65 38 78 37 16 124 18 163 3z"/>
<path d="M14334 4599 c-6 -8 -14 -23 -18 -34 -7 -19 -6 -19 15 1 12 12 20 27
17 34 -3 9 -6 9 -14 -1z"/>
<path d="M14280 4520 c0 -11 -7 -20 -15 -20 -9 0 -18 -7 -21 -15 -4 -8 -11
-15 -18 -15 -6 0 -12 -11 -12 -25 -2 -18 3 -25 17 -25 12 0 19 7 19 20 0 12 7
20 18 20 19 0 47 53 37 70 -10 17 -25 11 -25 -10z"/>
<path d="M14261 4413 c-11 -16 -21 -23 -21 -16 0 7 -12 0 -26 -14 -21 -21 -24
-30 -16 -44 9 -13 6 -21 -10 -35 -20 -19 -21 -19 -14 2 4 13 1 26 -8 33 -11 9
-15 7 -21 -11 -5 -13 -9 -34 -9 -48 -1 -19 -7 -26 -25 -28 -18 -3 -21 -6 -10
-12 11 -7 11 -12 1 -22 -6 -6 -12 -20 -12 -31 0 -10 -5 -15 -11 -12 -6 4 -8
13 -5 20 2 7 -1 16 -9 19 -10 4 -11 -2 -5 -26 8 -25 7 -29 -6 -24 -8 3 -12 2
-9 -3 3 -5 1 -12 -5 -16 -6 -4 -8 -11 -5 -16 4 -5 2 -9 -3 -9 -14 0 -52 -36
-52 -49 0 -7 -5 -9 -12 -5 -7 5 -9 2 -6 -7 7 -18 -18 -82 -29 -76 -5 3 -13 -6
-20 -19 -8 -18 -8 -24 0 -25 7 0 3 -4 -8 -9 -13 -6 -15 -9 -5 -9 10 -1 7 -6
-8 -17 -12 -8 -22 -21 -22 -29 0 -7 -14 -27 -30 -45 -17 -18 -33 -43 -36 -57
-5 -19 -9 -22 -16 -11 -7 9 -8 4 -4 -14 5 -22 3 -26 -9 -22 -11 4 -19 -3 -26
-25 -6 -17 -15 -31 -20 -31 -4 0 -6 -6 -3 -14 3 -8 -3 -16 -15 -19 -13 -3 -21
-13 -21 -27 0 -13 -4 -19 -12 -14 -6 4 -8 3 -4 -4 3 -6 -11 -29 -33 -51 -21
-22 -42 -55 -46 -73 -10 -44 -16 -53 -26 -37 -6 10 -9 8 -9 -8 0 -13 -4 -23
-10 -23 -5 0 -10 -4 -10 -10 0 -5 6 -10 14 -10 8 0 18 -5 22 -12 5 -7 3 -8 -5
-4 -7 5 -21 0 -32 -10 -25 -23 -24 -33 2 -27 12 4 20 2 17 -3 -2 -5 -13 -28
-23 -51 -10 -24 -24 -43 -31 -43 -7 0 -18 -9 -24 -20 -9 -16 -7 -22 6 -27 10
-4 19 -2 22 5 2 7 12 12 23 12 19 0 18 -2 -6 -44 -21 -37 -23 -45 -10 -49 8
-4 14 -3 13 1 -3 11 74 92 82 87 4 -2 7 6 6 18 -1 13 10 33 28 50 35 32 46 34
53 7 6 -22 23 -18 23 6 0 8 13 28 30 45 16 18 27 35 25 39 -3 5 -2 10 3 12 13
5 82 100 82 112 0 6 12 25 26 41 15 17 33 44 41 60 7 17 22 44 33 60 11 17 25
42 31 58 6 15 15 27 20 27 6 0 9 6 8 13 -1 6 3 25 9 40 7 16 12 32 12 37 0 5
11 17 24 26 14 8 23 21 20 29 -3 7 5 20 18 29 15 11 18 16 7 16 -8 0 -15 9
-16 20 -1 11 2 20 8 20 5 0 9 -8 10 -17 1 -10 6 -3 11 15 6 17 16 32 22 32 10
0 16 20 19 68 0 6 3 12 7 12 9 0 42 71 36 78 -3 3 -8 -3 -12 -12 -9 -23 -24
-20 -24 6 0 12 10 32 22 46 13 13 23 29 24 35 0 7 2 24 2 40 1 17 8 27 17 27
9 0 15 10 15 26 0 14 11 42 25 62 40 59 27 90 -14 35z m-171 -293 c0 -5 -7
-10 -16 -10 -8 0 -12 5 -9 10 3 6 10 10 16 10 5 0 9 -4 9 -10z m-487 -860 c-5
-20 -40 -46 -49 -37 -4 4 41 57 50 57 2 0 2 -9 -1 -20z"/>
<path d="M13860 4058 c0 -10 2 -18 5 -18 2 0 9 8 14 18 8 14 6 19 -5 19 -7 0
-14 -9 -14 -19z"/>
<path d="M13824 4014 c-4 -10 -9 -22 -11 -26 -2 -5 0 -8 6 -8 11 0 26 39 17
47 -3 3 -9 -3 -12 -13z"/>
<path d="M13763 3913 c-18 -7 -16 -30 1 -30 8 0 14 9 13 19 -1 10 -1 18 -2 17
0 0 -6 -3 -12 -6z"/>
<path d="M13714 3843 c-25 -41 -76 -122 -110 -172 -16 -24 -37 -58 -48 -75
-10 -17 -36 -52 -57 -77 -22 -26 -39 -51 -39 -57 0 -5 -7 -15 -15 -22 -19 -16
-19 -40 -1 -40 8 0 17 14 21 30 4 17 12 30 19 30 6 0 19 9 29 20 9 11 14 20
10 20 -3 0 6 10 20 23 15 12 42 46 60 75 19 28 36 49 39 46 7 -7 29 56 23 66
-2 4 2 16 10 26 14 18 15 17 10 -11 l-5 -30 12 33 c6 17 15 32 19 32 5 0 6 7
3 15 -5 11 -1 14 12 9 16 -5 17 -4 4 5 -13 10 -13 13 3 25 19 14 23 41 7 51
-5 3 -17 -7 -26 -22z"/>
<path d="M13411 3374 c0 -11 3 -14 6 -6 3 7 2 16 -1 19 -3 4 -6 -2 -5 -13z"/>
<path d="M13368 3323 c7 -3 16 -2 19 1 4 3 -2 6 -13 5 -11 0 -14 -3 -6 -6z"/>
<path d="M4370 3279 c-6 -11 -10 -24 -8 -29 5 -15 52 13 56 33 5 25 -35 22
-48 -4z"/>
<path d="M13316 3275 c-11 -8 -15 -15 -9 -15 6 0 16 7 23 15 16 19 11 19 -14
0z"/>
<path d="M13655 3249 c-10 -15 1 -23 20 -15 9 3 13 10 10 16 -8 13 -22 13 -30
-1z"/>
<path d="M13640 3189 c0 -5 5 -7 10 -4 6 3 10 8 10 11 0 2 -4 4 -10 4 -5 0
-10 -5 -10 -11z"/>
<path d="M13250 3180 c0 -5 5 -10 11 -10 5 0 7 5 4 10 -3 6 -8 10 -11 10 -2 0
-4 -4 -4 -10z"/>
<path d="M13593 3132 c-1 -22 0 -24 9 -8 6 10 6 22 2 26 -5 5 -10 -3 -11 -18z"/>
<path d="M13195 3130 c-3 -6 1 -7 9 -4 18 7 21 14 7 14 -6 0 -13 -4 -16 -10z"/>
<path d="M13428 3098 c9 -9 15 -9 24 0 9 9 7 12 -12 12 -19 0 -21 -3 -12 -12z"/>
<path d="M13471 3084 c-12 -14 -11 -16 4 -12 10 1 20 9 23 16 5 17 -10 15 -27
-4z"/>
<path d="M13395 3070 c-3 -5 1 -10 9 -10 9 0 16 5 16 10 0 6 -4 10 -9 10 -6 0
-13 -4 -16 -10z"/>
<path d="M13509 3013 c-13 -16 -12 -17 4 -4 16 13 21 21 13 21 -2 0 -10 -8
-17 -17z"/>
<path d="M13050 2935 c-7 -9 -8 -15 -2 -15 5 0 12 7 16 15 3 8 4 15 2 15 -2 0
-9 -7 -16 -15z"/>
<path d="M12760 2685 c-8 -9 -8 -15 -2 -15 12 0 26 19 19 26 -2 2 -10 -2 -17
-11z"/>
<path d="M12727 2629 c7 -7 15 -10 18 -7 3 3 -2 9 -12 12 -14 6 -15 5 -6 -5z"/>
<path d="M12690 2616 c0 -8 -6 -16 -12 -19 -7 -2 -9 -8 -5 -13 5 -5 15 -1 23
10 16 23 18 36 4 36 -5 0 -10 -6 -10 -14z"/>
<path d="M12475 2390 c-3 -6 1 -7 9 -4 18 7 21 14 7 14 -6 0 -13 -4 -16 -10z"/>
<path d="M12430 2370 c0 -5 5 -10 10 -10 6 0 10 5 10 10 0 6 -4 10 -10 10 -5
0 -10 -4 -10 -10z"/>
<path d="M5737 2323 c-13 -13 -7 -42 11 -47 10 -3 34 -22 54 -41 44 -41 160
-105 190 -105 22 0 20 2 -124 134 -16 13 -28 22 -28 19 0 -3 -8 0 -17 8 -42
33 -74 45 -86 32z"/>
<path d="M5643 2196 c-30 -39 -299 -398 -335 -448 -9 -13 -39 -54 -67 -93 -28
-38 -51 -76 -51 -83 0 -10 -7 -12 -21 -9 -15 4 -19 2 -15 -9 3 -9 -1 -22 -9
-30 -15 -16 -61 -77 -199 -264 -42 -58 -97 -132 -122 -165 -107 -141 -159
-221 -156 -238 2 -9 8 -15 13 -12 5 3 7 -7 5 -23 -4 -36 -42 -92 -62 -92 -11
0 -13 -6 -9 -19 3 -11 0 -23 -7 -28 -14 -9 -68 -78 -68 -87 0 -3 -9 -16 -20
-28 -43 -48 -50 -58 -50 -67 0 -5 -6 -16 -13 -23 -7 -7 -50 -65 -97 -128 -46
-63 -87 -117 -90 -120 -4 -3 -26 -34 -50 -70 -24 -36 -53 -73 -65 -82 l-20
-18 24 -19 c29 -22 55 -21 59 3 2 10 11 26 20 35 10 10 31 35 47 55 17 21 61
75 98 119 38 44 76 92 85 106 9 14 35 44 58 67 23 22 45 52 49 65 4 13 18 35
31 49 13 14 41 45 61 70 21 24 52 59 68 76 17 18 36 44 43 58 8 18 19 26 37
26 27 0 52 21 82 67 10 15 23 35 30 43 6 8 34 44 62 80 28 36 56 72 63 80 7 8
27 35 43 60 17 25 59 80 94 123 36 43 69 86 75 96 34 55 59 91 63 91 11 0 103
-56 103 -62 0 -5 8 -8 18 -8 10 0 24 -6 31 -13 11 -10 13 -8 7 13 -3 14 -6 28
-6 31 0 3 -25 23 -55 43 -30 20 -55 39 -55 42 0 7 105 157 123 177 18 19 71
89 88 117 9 14 29 39 45 56 29 32 33 37 68 90 11 16 25 34 31 39 6 6 32 38 59
73 40 53 51 62 69 56 33 -10 65 -37 71 -58 5 -19 26 -14 26 7 0 23 -95 113
-158 150 -21 12 -43 27 -50 34 -8 8 -26 20 -40 27 -26 13 -28 12 -59 -28z"/>
<path d="M11956 1930 c7 -27 34 -71 34 -55 -1 6 -10 26 -21 45 -15 26 -18 29
-13 10z"/>
<path d="M11261 1699 c-113 -44 -198 -88 -198 -103 0 -9 4 -16 9 -16 4 0 8 4
8 9 0 6 20 13 45 17 25 3 47 10 50 14 3 5 23 11 45 15 22 4 40 11 40 16 0 5 7
9 16 9 8 0 13 4 10 9 -4 5 0 11 6 14 9 3 10 8 3 15 -6 6 -19 7 -34 1z"/>
<path d="M11024 1585 c-17 -13 -17 -14 -2 -15 9 0 20 5 23 11 11 17 0 20 -21
4z"/>
<path d="M11266 1561 c-4 -5 3 -7 14 -4 23 6 26 13 6 13 -8 0 -17 -4 -20 -9z"/>
<path d="M10960 1549 c0 -5 5 -7 10 -4 6 3 10 8 10 11 0 2 -4 4 -10 4 -5 0
-10 -5 -10 -11z"/>
<path d="M10850 1530 c0 -5 10 -10 23 -10 18 0 19 2 7 10 -19 13 -30 13 -30 0z"/>
<path d="M10720 1478 c-14 -3 -44 -12 -67 -18 -24 -6 -43 -15 -43 -21 0 -19
31 -21 66 -4 20 9 38 14 41 11 4 -3 12 -1 19 5 8 6 20 9 29 6 23 -10 25 7 2
18 -12 6 -33 7 -47 3z"/>
<path d="M11025 1480 c-3 -5 -1 -10 4 -10 6 0 11 5 11 10 0 6 -2 10 -4 10 -3
0 -8 -4 -11 -10z"/>
<path d="M11010 1450 c0 -5 5 -10 11 -10 5 0 7 5 4 10 -3 6 -8 10 -11 10 -2 0
-4 -4 -4 -10z"/>
<path d="M10518 1416 c-38 -5 -68 -12 -68 -16 0 -10 84 -20 90 -11 3 4 18 12
35 18 46 15 17 20 -57 9z"/>
<path d="M12528 1413 c7 -3 16 -2 19 1 4 3 -2 6 -13 5 -11 0 -14 -3 -6 -6z"/>
<path d="M10355 1370 c-3 -5 3 -10 14 -10 12 0 21 5 21 10 0 6 -6 10 -14 10
-8 0 -18 -4 -21 -10z"/>
<path d="M10400 1365 c0 -8 -15 -19 -32 -24 -18 -5 -24 -9 -13 -9 21 0 76 15
61 17 -5 1 -3 8 4 16 10 12 10 15 -4 15 -9 0 -16 -7 -16 -15z"/>
<path d="M10745 1370 c-3 -5 1 -10 10 -10 9 0 13 5 10 10 -3 6 -8 10 -10 10
-2 0 -7 -4 -10 -10z"/>
<path d="M10274 1345 c8 -8 21 -15 28 -15 8 1 6 6 -6 15 -26 20 -42 19 -22 0z"/>
<path d="M10144 1331 c6 -10 -90 -25 -104 -16 -15 9 -48 -13 -56 -37 l-6 -21
-18 23 c-11 15 -19 19 -24 11 -4 -6 -2 -11 3 -11 19 0 12 -17 -9 -23 -15 -4
-20 0 -20 15 0 16 -5 19 -22 14 -13 -3 -33 -6 -45 -6 -13 0 -23 -4 -23 -10 0
-5 16 -10 36 -10 19 0 33 -4 29 -9 -9 -15 12 -23 32 -12 18 10 177 34 221 33
12 0 22 4 22 9 0 5 17 10 38 10 l37 2 -40 6 -40 7 38 7 c21 5 47 5 57 2 11 -4
20 -2 20 4 0 16 -57 23 -81 10 -17 -9 -24 -9 -27 0 -2 6 -8 11 -13 11 -6 0 -8
-4 -5 -9z"/>
<path d="M10560 1320 c0 -5 5 -10 11 -10 5 0 7 5 4 10 -3 6 -8 10 -11 10 -2 0
-4 -4 -4 -10z"/>
<path d="M10508 1303 c7 -3 16 -2 19 1 4 3 -2 6 -13 5 -11 0 -14 -3 -6 -6z"/>
<path d="M8118 1254 c12 -8 28 -13 35 -11 7 3 5 6 -5 6 -10 1 -18 6 -18 11 0
6 -8 10 -17 10 -14 0 -13 -3 5 -16z"/>
<path d="M9768 1263 c7 -3 16 -2 19 1 4 3 -2 6 -13 5 -11 0 -14 -3 -6 -6z"/>
<path d="M9540 1241 c-19 -3 -55 -16 -78 -29 -38 -20 -58 -23 -148 -23 -84 0
-104 -3 -104 -15 0 -7 7 -14 16 -14 8 0 13 4 10 9 -3 4 36 7 87 6 128 -4 238
5 230 18 -4 6 7 7 32 3 25 -5 35 -4 30 4 -3 5 -10 8 -15 5 -5 -3 -11 -1 -14 4
-4 5 -2 12 4 16 14 9 13 25 -2 24 -7 -1 -29 -5 -48 -8z"/>
<path d="M9776 1235 c4 -8 18 -15 34 -15 15 0 33 7 40 15 10 12 10 15 -2 15
-8 0 -20 -6 -27 -12 -11 -10 -14 -10 -18 0 -3 6 -11 12 -19 12 -8 0 -11 -6 -8
-15z"/>
<path d="M8450 1230 c0 -5 9 -10 21 -10 11 0 17 5 14 10 -3 6 -13 10 -21 10
-8 0 -14 -4 -14 -10z"/>
<path d="M9663 1230 c-36 -14 -27 -30 16 -30 37 0 68 19 54 33 -9 9 -43 8 -70
-3z"/>
<path d="M10238 1228 c6 -6 18 -8 28 -6 14 3 12 5 -9 10 -19 3 -25 2 -19 -4z"/>
<path d="M10298 1233 c7 -3 16 -2 19 1 4 3 -2 6 -13 5 -11 0 -14 -3 -6 -6z"/>
<path d="M10179 1204 c25 -11 40 -13 55 -5 20 9 20 10 -4 9 -14 0 -38 2 -55 6
-29 6 -29 6 4 -10z"/>
<path d="M8944 1200 c-5 -4 -18 -10 -29 -13 -13 -3 -8 -5 13 -6 19 -1 31 -5
27 -11 -4 -6 28 -10 89 -10 53 0 96 2 96 4 0 2 2 10 5 18 4 10 -7 12 -50 10
-30 -2 -55 -8 -55 -13 0 -5 -16 -9 -36 -9 -19 0 -33 3 -31 8 7 11 -19 32 -29
22z m169 -27 c-7 -2 -21 -2 -30 0 -10 3 -4 5 12 5 17 0 24 -2 18 -5z"/>
<path d="M8858 1193 c7 -3 16 -2 19 1 4 3 -2 6 -13 5 -11 0 -14 -3 -6 -6z"/>
<path d="M10120 1190 c0 -5 9 -10 20 -10 11 0 20 5 20 10 0 6 -9 10 -20 10
-11 0 -20 -4 -20 -10z"/>
<path d="M8508 1183 c7 -3 16 -2 19 1 4 3 -2 6 -13 5 -11 0 -14 -3 -6 -6z"/>
<path d="M8593 1183 c9 -2 25 -2 35 0 9 3 1 5 -18 5 -19 0 -27 -2 -17 -5z"/>
<path d="M8695 1180 c-27 -7 -28 -8 -5 -8 14 0 34 3 45 8 25 11 2 11 -40 0z"/>
<path d="M10067 1183 c-12 -11 -8 -23 8 -23 8 0 15 7 15 15 0 16 -12 20 -23 8z"/>
<path d="M9150 1170 c0 -5 12 -10 28 -10 21 0 24 2 12 10 -20 13 -40 13 -40 0z"/>
<path d="M8828 1163 c18 -2 45 -2 60 0 15 2 0 4 -33 4 -33 0 -45 -2 -27 -4z"/>
<path d="M9884 1153 c-16 -8 -47 -15 -69 -14 -51 2 -209 -19 -226 -30 -27 -16
-2 -18 66 -4 110 21 178 27 170 15 -3 -5 -1 -10 4 -10 6 0 11 5 11 10 0 6 19
10 43 10 28 0 37 3 28 9 -11 7 -9 10 10 13 19 2 20 5 8 10 -9 3 -29 -1 -45 -9z"/>
<path d="M10000 1160 c0 -5 5 -10 10 -10 6 0 10 5 10 10 0 6 -4 10 -10 10 -5
0 -10 -4 -10 -10z"/>
<path d="M10130 1150 c0 -5 5 -10 10 -10 6 0 10 5 10 10 0 6 -4 10 -10 10 -5
0 -10 -4 -10 -10z"/>
<path d="M10180 1149 c0 -5 5 -7 10 -4 6 3 10 8 10 11 0 2 -4 4 -10 4 -5 0
-10 -5 -10 -11z"/>
<path d="M9453 1109 c-34 -10 -43 -26 -19 -35 16 -6 79 30 69 39 -7 8 -8 8
-50 -4z"/>
<path d="M9520 1100 c0 -5 7 -10 15 -10 8 0 15 5 15 10 0 6 -7 10 -15 10 -8 0
-15 -4 -15 -10z"/>
<path d="M9340 1087 c0 -9 5 -19 10 -22 6 -3 10 -1 10 5 0 6 4 9 8 6 4 -2 14
-1 22 5 13 7 12 9 -2 9 -9 0 -23 3 -32 6 -10 4 -16 1 -16 -9z"/>
<path d="M10635 1090 c-3 -5 -1 -10 4 -10 6 0 11 5 11 10 0 6 -2 10 -4 10 -3
0 -8 -4 -11 -10z"/>
<path d="M8575 1080 c3 -5 17 -10 31 -10 14 0 22 4 19 10 -3 6 -17 10 -31 10
-14 0 -22 -4 -19 -10z"/>
<path d="M8650 1082 c0 -14 11 -21 26 -15 8 3 11 9 8 14 -7 11 -34 12 -34 1z"/>
<path d="M8704 1078 c-3 -4 23 -7 58 -7 66 1 62 6 -10 11 -24 2 -46 0 -48 -4z"/>
<path d="M8928 1083 c7 -3 16 -2 19 1 4 3 -2 6 -13 5 -11 0 -14 -3 -6 -6z"/>
<path d="M9240 1080 c-15 -10 -12 -10 55 -14 8 -1 15 3 15 9 0 13 -51 17 -70
5z"/>
<path d="M9080 1070 c-12 -8 -12 -10 3 -16 20 -7 47 1 47 16 0 12 -30 13 -50
0z"/>
<path d="M9150 1070 c0 -5 7 -10 15 -10 8 0 15 5 15 10 0 6 -7 10 -15 10 -8 0
-15 -4 -15 -10z"/>
<path d="M8908 1063 c6 -2 18 -2 25 0 6 3 1 5 -13 5 -14 0 -19 -2 -12 -5z"/>
<path d="M9238 1053 c6 -2 18 -2 25 0 6 3 1 5 -13 5 -14 0 -19 -2 -12 -5z"/>
<path d="M10428 1033 c7 -3 16 -2 19 1 4 3 -2 6 -13 5 -11 0 -14 -3 -6 -6z"/>
<path d="M9830 999 c0 -5 5 -7 10 -4 6 3 10 8 10 11 0 2 -4 4 -10 4 -5 0 -10
-5 -10 -11z"/>
<path d="M9282 955 c0 -16 2 -22 5 -12 2 9 2 23 0 30 -3 6 -5 -1 -5 -18z"/>
<path d="M9005 960 l-30 -8 33 -1 c17 0 32 4 32 9 0 6 -1 9 -2 9 -2 -1 -16 -5
-33 -9z"/>
<path d="M9360 944 c0 -8 5 -12 10 -9 6 4 8 11 5 16 -9 14 -15 11 -15 -7z"/>
<path d="M9855 930 c27 -12 35 -12 35 0 0 6 -12 10 -27 9 -25 0 -26 -1 -8 -9z"/>
<path d="M9680 915 c0 -8 7 -15 16 -15 8 0 13 4 9 9 -3 5 7 12 22 14 23 3 21
4 -9 6 -28 1 -38 -3 -38 -14z"/>
</g>
</svg>
